<?xml version="1.0" encoding="UTF-8" standalone="no"?>
<svg width="166px" height="30px" viewBox="0 0 166 30" version="1.1" xmlns="http://www.w3.org/2000/svg" xmlns:xlink="http://www.w3.org/1999/xlink" xmlns:sketch="http://www.bohemiancoding.com/sketch/ns">
    <!-- Generator: Sketch 3.5.1 (25234) - http://www.bohemiancoding.com/sketch -->
    <title>prototyp-original-logotype-vit</title>
    <desc>Created with Sketch.</desc>
    <defs></defs>
    <g id="Drafts" stroke="none" stroke-width="1" fill="none" fill-rule="evenodd" sketch:type="MSPage">
        <g id="Single-case-page" sketch:type="MSArtboardGroup" transform="translate(-102.000000, -36.000000)" fill="#FFFFFF">
            <g id="prototyp-original-logotype-vit" sketch:type="MSLayerGroup" transform="translate(102.000000, 36.000000)">
                <path d="M10.9787074,12.3074483 C9.24092553,13.9355172 6.43064362,14.0875862 5.45917021,14.0882069 L3.31748936,14.0882069 C2.99283511,14.0882069 2.72958511,13.8256552 2.72958511,13.5018621 L2.72958511,3.30310345 C2.72958511,2.97910345 2.99262766,2.71655172 3.31728191,2.71655172 L5.06979255,2.71593103 C7.72345213,2.71655172 9.70622872,3.36910345 10.9641862,4.65517241 C12.507383,6.23441379 12.4723245,8.32386207 12.4714947,8.38696552 C12.4714947,10.0831034 11.9829574,11.3654483 10.9787074,12.3074483 L10.9787074,12.3074483 Z M12.8830691,2.86427586 C11.1979787,1.11641379 8.72770213,0.198413793 5.55272872,0.111931034 C5.46726064,0.106758621 5.06730319,0.0947586207 5.06668085,0.0947586207 L1.27745745,0.0957931034 C0.627941489,0.0957931034 0.101441489,0.620896552 0.101441489,1.26868966 L0.101441489,29.3195172 C0.101441489,29.6426897 0.364276596,29.9048276 0.688515957,29.9048276 L2.14251064,29.9048276 C2.46675,29.9048276 2.72958511,29.6426897 2.72958511,29.3195172 L2.72958511,17.2971724 C2.72958511,16.9733793 2.99283511,16.7108276 3.31748936,16.7108276 L5.45917021,16.7108276 C6.7895266,16.7108276 10.346617,16.4838621 12.7648245,14.2297241 C14.3142447,12.7851724 15.0994309,10.8194483 15.0986011,8.43827586 C15.1037872,8.3102069 15.1961011,5.26344828 12.8830691,2.86427586 L12.8830691,2.86427586 Z" id="Fill-1" sketch:type="MSShapeGroup"></path>
                <path d="M161.531569,12.3074483 C159.793787,13.9355172 156.983505,14.0875862 156.012032,14.0882069 L153.870351,14.0882069 C153.545697,14.0882069 153.282239,13.8256552 153.282239,13.5018621 L153.282239,3.30310345 C153.282239,2.97910345 153.545489,2.71655172 153.870144,2.71655172 L155.622654,2.71593103 C158.276314,2.71655172 160.25909,3.36910345 161.517048,4.65517241 C163.060245,6.23441379 163.025186,8.32386207 163.024356,8.38696552 C163.024356,10.0831034 162.535819,11.3654483 161.531569,12.3074483 L161.531569,12.3074483 Z M163.435723,2.86427586 C161.75084,1.11641379 159.280564,0.198413793 156.10559,0.111931034 C156.020122,0.106758621 155.620165,0.0947586207 155.619543,0.0947586207 L151.830112,0.0957931034 C151.180803,0.0957931034 150.654303,0.620896552 150.654303,1.26868966 L150.654303,29.3195172 C150.654303,29.6426897 150.917138,29.9048276 151.24117,29.9048276 L152.695372,29.9048276 C153.019612,29.9048276 153.282239,29.6426897 153.282239,29.3195172 L153.282239,17.2971724 C153.282239,16.9733793 153.545697,16.7108276 153.870351,16.7108276 L156.012032,16.7108276 C157.342388,16.7108276 160.899271,16.4838621 163.317686,14.2297241 C164.866899,12.7851724 165.652293,10.8194483 165.651463,8.43827586 C165.656649,8.3102069 165.748963,5.26344828 163.435723,2.86427586 L163.435723,2.86427586 Z" id="Fill-2" sketch:type="MSShapeGroup"></path>
                <path d="M20.100766,15.5973103 C20.1009734,15.9088966 20.1972287,16.2115862 20.3775,16.4658621 C21.9626011,18.7003448 29.8053351,29.6468276 29.8053351,29.6468276 C29.9221277,29.8088276 30.1096596,29.9048276 30.3096383,29.9048276 L32.0262606,29.9048276 C32.5324309,29.9048276 32.8257606,29.3331724 32.5299415,28.9237241 L23.747266,16.7108276 C25.4116117,16.5153103 27.6615798,15.8455862 29.3952128,14.2297241 C30.9444255,12.7851724 31.7298191,10.8194483 31.7289894,8.43827586 C31.7339681,8.3102069 31.8264894,5.26344828 29.51325,2.86427586 C27.8281596,1.11641379 25.3580904,0.198413793 22.183117,0.111931034 C22.0640426,0.105310345 21.6962394,0.0949655172 21.6962394,0.0949655172 L17.9076383,0.0957931034 C17.2583298,0.0957931034 16.7318298,0.620896552 16.7318298,1.26868966 L16.7318298,29.3195172 C16.7318298,29.6426897 16.9946649,29.9048276 17.3186968,29.9048276 L18.7728989,29.9048276 C19.0971383,29.9048276 19.359766,29.6426897 19.359766,29.3195172 L19.359766,3.30310345 C19.359766,2.97910345 19.623016,2.71655172 19.9476702,2.71655172 L21.7001809,2.71593103 C24.3538404,2.71655172 26.336617,3.36910345 27.5945745,4.65517241 C29.1377713,6.23441379 29.1027128,8.32386207 29.101883,8.38696552 C29.101883,10.0831034 28.6133457,11.3654483 27.6090957,12.3074483 C25.8713138,13.9355172 23.0610319,14.0875862 22.0895585,14.0882069 L21.6126383,14.0882069 C20.77725,14.0882069 20.1001436,14.7641379 20.100766,15.5973103" id="Fill-3" sketch:type="MSShapeGroup"></path>
                <path d="M148.977718,0.962068966 C149.191181,0.571241379 148.907394,0.0951724138 148.461383,0.0951724138 L146.832718,0.0951724138 C146.617388,0.0951724138 146.419277,0.212482759 146.316383,0.401172414 L139.343888,13.1656552 C139.236431,13.3626207 138.952851,13.3626207 138.845186,13.1656552 L131.874766,0.401172414 C131.771665,0.212482759 131.573553,0.0951724138 131.358223,0.0951724138 L129.734952,0.0951724138 C129.288941,0.0951724138 129.005362,0.571034483 129.21841,0.961862069 L137.742814,16.5897931 C137.743436,16.5910345 137.784096,16.6622069 137.780569,16.719931 L137.780569,29.3168276 C137.780569,29.6406207 138.043819,29.9033793 138.368681,29.9033793 L139.820601,29.9033793 C140.145255,29.9033793 140.408505,29.6406207 140.408505,29.3168276 L140.408505,16.716 C140.407053,16.6630345 140.438793,16.6028276 140.444186,16.5933103 L148.977718,0.962068966" id="Fill-4" sketch:type="MSShapeGroup"></path>
                <path d="M127.538713,0.662896552 C127.538713,0.338896552 127.275463,0.0763448276 126.950809,0.0763448276 L99.6684415,0.0811034483 C98.3938883,0.0811034483 97.3581064,1.06510345 97.2187021,2.32944828 C97.0898777,3.37282759 97.6589043,4.61110345 98.9907128,4.99468966 L98.9896755,4.99717241 C99.0290904,5.00668966 99.067883,5.01848276 99.1072979,5.02862069 C99.1089574,5.02882759 99.1102021,5.02944828 99.1116543,5.02986207 L99.1118617,5.02965517 C104.005947,6.28365517 107.634191,10.7195172 107.634191,15.9862759 C107.634191,22.224 102.545936,27.2989655 96.2918298,27.2989655 C90.0373085,27.2989655 84.9490532,22.224 84.9490532,15.9862759 C84.9490532,10.7209655 88.5746011,6.28427586 93.4668191,5.02903448 L93.4674415,5.02986207 C94.8874149,4.68931034 95.4931596,3.40448276 95.3606011,2.32944828 C95.2209894,1.06510345 94.1852074,0.0811034483 92.9106543,0.0811034483 L63.7782766,0.0811034483 C63.1329096,0.0811034483 62.6035053,0.607862069 62.6022606,1.25151724 L62.581516,10.8674483 C60.7275638,4.41910345 54.6082979,-0.249103448 47.4768989,0.114827586 C39.9082021,0.500896552 33.7764894,6.60227586 33.3734202,14.150069 C32.9162074,22.7118621 39.7816596,29.9048276 48.2683085,29.9048276 C55.5613085,29.9048276 61.6305798,24.5702069 62.9078298,17.6594483 C62.9252553,17.5646897 62.9420585,17.4695172 62.957617,17.3741379 C63.0167394,17.0149655 62.7427021,16.6874483 62.3778032,16.6874483 L60.871117,16.6874483 C60.5887819,16.6874483 60.3454468,16.8875172 60.2946223,17.1645517 C60.2778191,17.2557931 60.2599787,17.3468276 60.2413085,17.4374483 C59.0644628,23.106 53.948617,27.4313793 47.8797606,27.2428966 C41.5372819,27.0461379 36.3258032,21.8656552 36.0285319,15.5437241 C35.6993138,8.54751724 41.3115798,2.75068966 48.2554468,2.75068966 C53.7857713,2.75068966 58.4695053,6.42786207 59.9813777,11.4591724 C60.0079309,11.5471034 60.2016862,12.2766207 60.2016862,12.2766207 C60.4707447,13.3787586 61.4886862,14.1777931 62.6564043,14.1846207 L62.66325,14.1846207 C63.3399415,14.1846207 63.9774255,13.9226897 64.45725,13.4457931 C64.9397713,12.9678621 65.2057181,12.3314483 65.2073777,11.6522069 L65.2258404,3.3182069 C65.2266702,2.99482759 65.4897128,2.73310345 65.8139521,2.73310345 L71.8583298,2.73310345 C72.1831915,2.73310345 72.4464415,2.99565517 72.4464415,3.31944828 L72.4464415,29.3182759 C72.4464415,29.6422759 72.7096915,29.9048276 73.0343457,29.9048276 L74.486266,29.9048276 C74.8111277,29.9048276 75.0743777,29.6422759 75.0743777,29.3182759 L75.0743777,3.31944828 C75.0743777,2.99565517 75.3376277,2.73310345 75.6624894,2.73310345 L91.7676223,2.73289655 C86.2395798,4.61503448 82.2522447,9.84393103 82.2522447,15.9862759 C82.2522447,23.7072414 88.5503298,29.9886207 96.2918298,29.9886207 C104.033122,29.9886207 110.331,23.7072414 110.331,15.9862759 C110.331,9.84372414 106.343665,4.61503448 100.815622,2.73289655 L117.092314,2.72834483 C117.416968,2.72834483 117.680218,2.99089655 117.680218,3.31468966 L117.680218,29.3182759 C117.680218,29.6422759 117.943468,29.9048276 118.26833,29.9048276 L119.72025,29.9048276 C120.044904,29.9048276 120.308154,29.6422759 120.308154,29.3182759 L120.308362,3.31468966 C120.308362,2.99089655 120.571612,2.72834483 120.896266,2.72834483 L126.950809,2.72834483 C127.27567,2.72834483 127.53892,2.46558621 127.53892,2.1417931 L127.538713,0.662896552" id="Fill-5" sketch:type="MSShapeGroup"></path>
            </g>
        </g>
    </g>
</svg>